#!OML:ASF F:\VICON\USERDATA\INSTALL\rory3\rory3.ASF
:FULLY-SPECIFIED
:DEGREES
148
root -0.291535 16.1772 -6.26201 -0.990607 -2.51574 5.43025
lowerback 13.5265 0.431047 -8.39683
upperback -4.16615 -0.885915 0.717517
thorax -12.1459 0.256983 5.76526
lowerneck -9.48783 -3.93323 -2.85211
upperneck 18.4977 -5.18953 1.23807
head 7.34417 -2.58055 0.399261
rclavicle 1.78906e-015 -1.59028e-014
rhumerus -47.408 -16.6949 -70.137
rradius 16.7497
rwrist 13.4761
rhand -8.49486 22.2908
rfingers 7.12502
rthumb 17.4326 -6.94753
lclavicle 1.78906e-015 -1.59028e-014
lhumerus -32.2588 4.89108 84.795
lradius 25.1984
lwrist 1.44985
lhand -5.1945 17.9588
lfingers 7.12502
lthumb 20.6065 46.885
rfemur -31.7586 -2.02619 17.1064
rtibia 72.5169
rfoot -3.96143 -3.18599
rtoes -8.94691
lfemur -7.38463 -11.4546 -33.6727
ltibia 28.2401
lfoot -15.4124 8.7792
ltoes 21.8632
149
root -0.283575 16.1677 -6.1267 -1.07152 -2.59248 5.49444
lowerback 13.5123 0.425616 -8.40343
upperback -4.06435 -0.887411 0.724914
thorax -12.0195 0.247575 5.77581
lowerneck -10.1934 -3.88486 -2.80267
upperneck 18.8396 -5.11991 1.24637
head 7.57932 -2.53674 0.382232
rclavicle -7.20594e-015 -1.03368e-014
rhumerus -47.6922 -16.3373 -70.3472
rradius 17.1031
rwrist 12.5412
rhand -8.16014 21.918
rfingers 7.12502
rthumb 17.7548 -7.29149
lclavicle -7.20594e-015 -1.03368e-014
lhumerus -32.0156 4.52692 85.0071
lradius 25.9763
lwrist 2.11318
lhand -4.72644 18.8883
lfingers 7.12502
lthumb 21.0562 47.7651
rfemur -32.355 -1.69688 17.0984
rtibia 71.0677
rfoot -5.15239 -3.66738
rtoes -4.46249
lfemur -6.57813 -11.6091 -33.9874
ltibia 28.0376
lfoot -15.9699 9.04198
ltoes 21.9315
150
root -0.28293 16.1654 -5.99767 -0.979664 -2.49035 5.55261
lowerback 13.4295 0.358609 -8.46031
upperback -4.04967 -0.98018 0.715926
thorax -11.9375 0.202928 5.81733
lowerneck -10.5342 -3.83194 -2.70605
upperneck 18.9944 -5.0692 1.29972
head 7.68883 -2.49764 0.380255
rclavicle -6.5102e-015 -3.97569e-015
rhumerus -47.9087 -15.559 -71.0449
rradius 17.6371
rwrist 10.8589
rhand -7.57488 20.7962
rfingers 7.12502
rthumb 18.3179 -8.36129
lclavicle -6.5102e-015 -3.97569e-015
lhumerus -31.9952 3.45436 85.5222
lradius 26.6929
lwrist 2.51681
lhand -5.23631 19.4424
lfingers 7.12502
lthumb 20.5664 48.373
rfemur -33.0056 -1.39998 17.139
rtibia 69.4019
rfoot -6.2211 -4.12901
rtoes -6.31956
lfemur -5.92033 -11.7046 -34.1944
ltibia 27.707
lfoot -16.2889 9.05293
ltoes 21.4719
151
root -0.287146 16.1646 -5.87818 -0.808711 -2.38997 5.64441
lowerback 13.4609 0.29081 -8.62962
upperback -4.14069 -1.10834 0.728954
thorax -12.0396 0.164047 5.96025
lowerneck -10.2197 -3.81609 -2.66269
upperneck 18.8315 -5.04698 1.23178
head 7.57535 -2.49338 0.361251
rclavicle -1.88845e-015 1.94809e-014
rhumerus -48.2978 -14.9885 -71.4796
rradius 18.1325
rwrist 9.67597
rhand -7.2441 19.7758
rfingers 7.12502
rthumb 18.636 -9.35154
lclavicle -1.88845e-015 1.94809e-014
lhumerus -32.089 2.75092 85.853
lradius 27.2736
lwrist 2.7071
lhand -5.43331 19.9561
lfingers 7.12502
lthumb 20.377 48.907
rfemur -33.699 -1.00291 17.1286
rtibia 67.5633
rfoot -6.88843 -4.5274
rtoes -7.38442
lfemur -5.36473 -11.8944 -34.3953
ltibia 27.293
lfoot -16.5395 9.1385
ltoes 21.0317
